<svg version="1.1" xmlns="http://www.w3.org/2000/svg" viewBox="0 0 885 885" width="885" height="885">
  <!-- svg-source:excalidraw -->
  
  <defs>
    <style class="style-fonts">
      @font-face {
        font-family: "Virgil";
        src: url("https://excalidraw.com/Virgil.woff2");
      }
      @font-face {
        font-family: "Cascadia";
        src: url("https://excalidraw.com/Cascadia.woff2");
      }
      @font-face {
        font-family: "Assistant";
        src: url("https://excalidraw.com/Assistant-Regular.woff2");
      }
    </style>
    
  </defs>
  <g stroke-linecap="round" transform="translate(10 10) rotate(0 432.5 432.5)"><path d="M865 432.5 C865 439.16, 864.85 445.82, 864.54 452.47 C864.23 459.13, 863.77 465.78, 863.16 472.41 C862.54 479.04, 861.77 485.66, 860.85 492.25 C859.93 498.85, 858.86 505.43, 857.64 511.97 C856.41 518.52, 855.04 525.04, 853.51 531.52 C851.99 538, 850.31 544.46, 848.49 550.86 C846.67 557.26, 844.7 563.63, 842.58 569.94 C840.46 576.26, 838.2 582.53, 835.79 588.74 C833.39 594.95, 830.84 601.11, 828.15 607.2 C825.46 613.29, 822.63 619.32, 819.66 625.28 C816.69 631.24, 813.58 637.14, 810.34 642.96 C807.1 648.77, 803.72 654.52, 800.22 660.18 C796.71 665.84, 793.07 671.43, 789.31 676.92 C785.55 682.41, 781.65 687.83, 777.64 693.14 C773.63 698.45, 769.49 703.68, 765.24 708.8 C760.98 713.92, 756.61 718.95, 752.12 723.87 C747.64 728.79, 743.03 733.62, 738.32 738.32 C733.62 743.03, 728.79 747.64, 723.87 752.12 C718.95 756.61, 713.92 760.98, 708.8 765.24 C703.68 769.49, 698.45 773.63, 693.14 777.64 C687.83 781.65, 682.41 785.55, 676.92 789.31 C671.43 793.07, 665.84 796.71, 660.18 800.22 C654.52 803.72, 648.77 807.1, 642.96 810.34 C637.14 813.58, 631.24 816.69, 625.28 819.66 C619.32 822.63, 613.29 825.46, 607.2 828.15 C601.11 830.84, 594.95 833.39, 588.74 835.79 C582.53 838.2, 576.26 840.46, 569.94 842.58 C563.63 844.7, 557.26 846.67, 550.86 848.49 C544.46 850.31, 538 851.99, 531.52 853.51 C525.04 855.04, 518.52 856.41, 511.97 857.64 C505.43 858.86, 498.85 859.93, 492.25 860.85 C485.66 861.77, 479.04 862.54, 472.41 863.16 C465.78 863.77, 459.13 864.23, 452.47 864.54 C445.82 864.85, 439.16 865, 432.5 865 C425.84 865, 419.18 864.85, 412.53 864.54 C405.87 864.23, 399.22 863.77, 392.59 863.16 C385.96 862.54, 379.34 861.77, 372.75 860.85 C366.15 859.93, 359.57 858.86, 353.03 857.64 C346.48 856.41, 339.96 855.04, 333.48 853.51 C327 851.99, 320.54 850.31, 314.14 848.49 C307.74 846.67, 301.37 844.7, 295.06 842.58 C288.74 840.46, 282.47 838.2, 276.26 835.79 C270.05 833.39, 263.89 830.84, 257.8 828.15 C251.71 825.46, 245.68 822.63, 239.72 819.66 C233.76 816.69, 227.86 813.58, 222.04 810.34 C216.23 807.1, 210.48 803.72, 204.82 800.22 C199.16 796.71, 193.57 793.07, 188.08 789.31 C182.59 785.55, 177.17 781.65, 171.86 777.64 C166.55 773.63, 161.32 769.49, 156.2 765.24 C151.08 760.98, 146.05 756.61, 141.13 752.12 C136.21 747.64, 131.38 743.03, 126.68 738.32 C121.97 733.62, 117.36 728.79, 112.88 723.87 C108.39 718.95, 104.02 713.92, 99.76 708.8 C95.51 703.68, 91.37 698.45, 87.36 693.14 C83.35 687.83, 79.45 682.41, 75.69 676.92 C71.93 671.43, 68.29 665.84, 64.78 660.18 C61.28 654.52, 57.9 648.77, 54.66 642.96 C51.42 637.14, 48.31 631.24, 45.34 625.28 C42.37 619.32, 39.54 613.29, 36.85 607.2 C34.16 601.11, 31.61 594.95, 29.21 588.74 C26.8 582.53, 24.54 576.26, 22.42 569.94 C20.3 563.63, 18.33 557.26, 16.51 550.86 C14.69 544.46, 13.01 538, 11.49 531.52 C9.96 525.04, 8.59 518.52, 7.36 511.97 C6.14 505.43, 5.07 498.85, 4.15 492.25 C3.23 485.66, 2.46 479.04, 1.84 472.41 C1.23 465.78, 0.77 459.13, 0.46 452.47 C0.15 445.82, 0 439.16, 0 432.5 C0 425.84, 0.15 419.18, 0.46 412.53 C0.77 405.87, 1.23 399.22, 1.84 392.59 C2.46 385.96, 3.23 379.34, 4.15 372.75 C5.07 366.15, 6.14 359.57, 7.36 353.03 C8.59 346.48, 9.96 339.96, 11.49 333.48 C13.01 327, 14.69 320.54, 16.51 314.14 C18.33 307.74, 20.3 301.37, 22.42 295.06 C24.54 288.74, 26.8 282.47, 29.21 276.26 C31.61 270.05, 34.16 263.89, 36.85 257.8 C39.54 251.71, 42.37 245.68, 45.34 239.72 C48.31 233.76, 51.42 227.86, 54.66 222.04 C57.9 216.23, 61.28 210.48, 64.78 204.82 C68.29 199.16, 71.93 193.57, 75.69 188.08 C79.45 182.59, 83.35 177.17, 87.36 171.86 C91.37 166.55, 95.51 161.32, 99.76 156.2 C104.02 151.08, 108.39 146.05, 112.88 141.13 C117.36 136.21, 121.97 131.38, 126.68 126.68 C131.38 121.97, 136.21 117.36, 141.13 112.88 C146.05 108.39, 151.08 104.02, 156.2 99.76 C161.32 95.51, 166.55 91.37, 171.86 87.36 C177.17 83.35, 182.59 79.45, 188.08 75.69 C193.57 71.93, 199.16 68.29, 204.82 64.78 C210.48 61.28, 216.23 57.9, 222.04 54.66 C227.86 51.42, 233.76 48.31, 239.72 45.34 C245.68 42.37, 251.71 39.54, 257.8 36.85 C263.89 34.16, 270.05 31.61, 276.26 29.21 C282.47 26.8, 288.74 24.54, 295.06 22.42 C301.37 20.3, 307.74 18.33, 314.14 16.51 C320.54 14.69, 327 13.01, 333.48 11.49 C339.96 9.96, 346.48 8.59, 353.03 7.36 C359.57 6.14, 366.15 5.07, 372.75 4.15 C379.34 3.23, 385.96 2.46, 392.59 1.84 C399.22 1.23, 405.87 0.77, 412.53 0.46 C419.18 0.15, 425.84 0, 432.5 0 C439.16 0, 445.82 0.15, 452.47 0.46 C459.13 0.77, 465.78 1.23, 472.41 1.84 C479.04 2.46, 485.66 3.23, 492.25 4.15 C498.85 5.07, 505.43 6.14, 511.97 7.36 C518.52 8.59, 525.04 9.96, 531.52 11.49 C538 13.01, 544.46 14.69, 550.86 16.51 C557.26 18.33, 563.63 20.3, 569.94 22.42 C576.26 24.54, 582.53 26.8, 588.74 29.21 C594.95 31.61, 601.11 34.16, 607.2 36.85 C613.29 39.54, 619.32 42.37, 625.28 45.34 C631.24 48.31, 637.14 51.42, 642.96 54.66 C648.77 57.9, 654.52 61.28, 660.18 64.78 C665.84 68.29, 671.43 71.93, 676.92 75.69 C682.41 79.45, 687.83 83.35, 693.14 87.36 C698.45 91.37, 703.68 95.51, 708.8 99.76 C713.92 104.02, 718.95 108.39, 723.87 112.88 C728.79 117.36, 733.62 121.97, 738.32 126.68 C743.03 131.38, 747.64 136.21, 752.12 141.13 C756.61 146.05, 760.98 151.08, 765.24 156.2 C769.49 161.32, 773.63 166.55, 777.64 171.86 C781.65 177.17, 785.55 182.59, 789.31 188.08 C793.07 193.57, 796.71 199.16, 800.22 204.82 C803.72 210.48, 807.1 216.23, 810.34 222.04 C813.58 227.86, 816.69 233.76, 819.66 239.72 C822.63 245.68, 825.46 251.71, 828.15 257.8 C830.84 263.89, 833.39 270.05, 835.79 276.26 C838.2 282.47, 840.46 288.74, 842.58 295.06 C844.7 301.37, 846.67 307.74, 848.49 314.14 C850.31 320.54, 851.99 327, 853.51 333.48 C855.04 339.96, 856.41 346.48, 857.64 353.03 C858.86 359.57, 859.93 366.15, 860.85 372.75 C861.77 379.34, 862.54 385.96, 863.16 392.59 C863.77 399.22, 864.23 405.87, 864.54 412.53 C864.85 419.18, 865 425.84, 865 432.5" stroke="none" stroke-width="0" fill="#99e9f2"></path><path d="M865 432.5 C865 439.16, 864.85 445.82, 864.54 452.47 C864.23 459.13, 863.77 465.78, 863.16 472.41 C862.54 479.04, 861.77 485.66, 860.85 492.25 C859.93 498.85, 858.86 505.43, 857.64 511.97 C856.41 518.52, 855.04 525.04, 853.51 531.52 C851.99 538, 850.31 544.46, 848.49 550.86 C846.67 557.26, 844.7 563.63, 842.58 569.94 C840.46 576.26, 838.2 582.53, 835.79 588.74 C833.39 594.95, 830.84 601.11, 828.15 607.2 C825.46 613.29, 822.63 619.32, 819.66 625.28 C816.69 631.24, 813.58 637.14, 810.34 642.96 C807.1 648.77, 803.72 654.52, 800.22 660.18 C796.71 665.84, 793.07 671.43, 789.31 676.92 C785.55 682.41, 781.65 687.83, 777.64 693.14 C773.63 698.45, 769.49 703.68, 765.24 708.8 C760.98 713.92, 756.61 718.95, 752.12 723.87 C747.64 728.79, 743.03 733.62, 738.32 738.32 C733.62 743.03, 728.79 747.64, 723.87 752.12 C718.95 756.61, 713.92 760.98, 708.8 765.24 C703.68 769.49, 698.45 773.63, 693.14 777.64 C687.83 781.65, 682.41 785.55, 676.92 789.31 C671.43 793.07, 665.84 796.71, 660.18 800.22 C654.52 803.72, 648.77 807.1, 642.96 810.34 C637.14 813.58, 631.24 816.69, 625.28 819.66 C619.32 822.63, 613.29 825.46, 607.2 828.15 C601.11 830.84, 594.95 833.39, 588.74 835.79 C582.53 838.2, 576.26 840.46, 569.94 842.58 C563.63 844.7, 557.26 846.67, 550.86 848.49 C544.46 850.31, 538 851.99, 531.52 853.51 C525.04 855.04, 518.52 856.41, 511.97 857.64 C505.43 858.86, 498.85 859.93, 492.25 860.85 C485.66 861.77, 479.04 862.54, 472.41 863.16 C465.78 863.77, 459.13 864.23, 452.47 864.54 C445.82 864.85, 439.16 865, 432.5 865 C425.84 865, 419.18 864.85, 412.53 864.54 C405.87 864.23, 399.22 863.77, 392.59 863.16 C385.96 862.54, 379.34 861.77, 372.75 860.85 C366.15 859.93, 359.57 858.86, 353.03 857.64 C346.48 856.41, 339.96 855.04, 333.48 853.51 C327 851.99, 320.54 850.31, 314.14 848.49 C307.74 846.67, 301.37 844.7, 295.06 842.58 C288.74 840.46, 282.47 838.2, 276.26 835.79 C270.05 833.39, 263.89 830.84, 257.8 828.15 C251.71 825.46, 245.68 822.63, 239.72 819.66 C233.76 816.69, 227.86 813.58, 222.04 810.34 C216.23 807.1, 210.48 803.72, 204.82 800.22 C199.16 796.71, 193.57 793.07, 188.08 789.31 C182.59 785.55, 177.17 781.65, 171.86 777.64 C166.55 773.63, 161.32 769.49, 156.2 765.24 C151.08 760.98, 146.05 756.61, 141.13 752.12 C136.21 747.64, 131.38 743.03, 126.68 738.32 C121.97 733.62, 117.36 728.79, 112.88 723.87 C108.39 718.95, 104.02 713.92, 99.76 708.8 C95.51 703.68, 91.37 698.45, 87.36 693.14 C83.35 687.83, 79.45 682.41, 75.69 676.92 C71.93 671.43, 68.29 665.84, 64.78 660.18 C61.28 654.52, 57.9 648.77, 54.66 642.96 C51.42 637.14, 48.31 631.24, 45.34 625.28 C42.37 619.32, 39.54 613.29, 36.85 607.2 C34.16 601.11, 31.61 594.95, 29.21 588.74 C26.8 582.53, 24.54 576.26, 22.42 569.94 C20.3 563.63, 18.33 557.26, 16.51 550.86 C14.69 544.46, 13.01 538, 11.49 531.52 C9.96 525.04, 8.59 518.52, 7.36 511.97 C6.14 505.43, 5.07 498.85, 4.15 492.25 C3.23 485.66, 2.46 479.04, 1.84 472.41 C1.23 465.78, 0.77 459.13, 0.46 452.47 C0.15 445.82, 0 439.16, 0 432.5 C0 425.84, 0.15 419.18, 0.46 412.53 C0.77 405.87, 1.23 399.22, 1.84 392.59 C2.46 385.96, 3.23 379.34, 4.15 372.75 C5.07 366.15, 6.14 359.57, 7.36 353.03 C8.59 346.48, 9.96 339.96, 11.49 333.48 C13.01 327, 14.69 320.54, 16.51 314.14 C18.33 307.74, 20.3 301.37, 22.42 295.06 C24.54 288.74, 26.8 282.47, 29.21 276.26 C31.61 270.05, 34.16 263.89, 36.85 257.8 C39.54 251.71, 42.37 245.68, 45.34 239.72 C48.31 233.76, 51.42 227.86, 54.66 222.04 C57.9 216.23, 61.28 210.48, 64.78 204.82 C68.29 199.16, 71.93 193.57, 75.69 188.08 C79.45 182.59, 83.35 177.17, 87.36 171.86 C91.37 166.55, 95.51 161.32, 99.76 156.2 C104.02 151.08, 108.39 146.05, 112.88 141.13 C117.36 136.21, 121.97 131.38, 126.68 126.68 C131.38 121.97, 136.21 117.36, 141.13 112.88 C146.05 108.39, 151.08 104.02, 156.2 99.76 C161.32 95.51, 166.55 91.37, 171.86 87.36 C177.17 83.35, 182.59 79.45, 188.08 75.69 C193.57 71.93, 199.16 68.29, 204.82 64.78 C210.48 61.28, 216.23 57.9, 222.04 54.66 C227.86 51.42, 233.76 48.31, 239.72 45.34 C245.68 42.37, 251.71 39.54, 257.8 36.85 C263.89 34.16, 270.05 31.61, 276.26 29.21 C282.47 26.8, 288.74 24.54, 295.06 22.42 C301.37 20.3, 307.74 18.33, 314.14 16.51 C320.54 14.69, 327 13.01, 333.48 11.49 C339.96 9.96, 346.48 8.59, 353.03 7.36 C359.57 6.14, 366.15 5.07, 372.75 4.15 C379.34 3.23, 385.96 2.46, 392.59 1.84 C399.22 1.23, 405.87 0.77, 412.53 0.46 C419.18 0.15, 425.84 0, 432.5 0 C439.16 0, 445.82 0.15, 452.47 0.46 C459.13 0.77, 465.78 1.23, 472.41 1.84 C479.04 2.46, 485.66 3.23, 492.25 4.15 C498.85 5.07, 505.43 6.14, 511.97 7.36 C518.52 8.59, 525.04 9.96, 531.52 11.49 C538 13.01, 544.46 14.69, 550.86 16.51 C557.26 18.33, 563.63 20.3, 569.94 22.42 C576.26 24.54, 582.53 26.8, 588.74 29.21 C594.95 31.61, 601.11 34.16, 607.2 36.85 C613.29 39.54, 619.32 42.37, 625.28 45.34 C631.24 48.31, 637.14 51.42, 642.96 54.66 C648.77 57.9, 654.52 61.28, 660.18 64.78 C665.84 68.29, 671.43 71.93, 676.92 75.69 C682.41 79.45, 687.83 83.35, 693.14 87.36 C698.45 91.37, 703.68 95.51, 708.8 99.76 C713.92 104.02, 718.95 108.39, 723.87 112.88 C728.79 117.36, 733.62 121.97, 738.32 126.68 C743.03 131.38, 747.64 136.21, 752.12 141.13 C756.61 146.05, 760.98 151.08, 765.24 156.2 C769.49 161.32, 773.63 166.55, 777.64 171.86 C781.65 177.17, 785.55 182.59, 789.31 188.08 C793.07 193.57, 796.71 199.16, 800.22 204.82 C803.72 210.48, 807.1 216.23, 810.34 222.04 C813.58 227.86, 816.69 233.76, 819.66 239.72 C822.63 245.68, 825.46 251.71, 828.15 257.8 C830.84 263.89, 833.39 270.05, 835.79 276.26 C838.2 282.47, 840.46 288.74, 842.58 295.06 C844.7 301.37, 846.67 307.74, 848.49 314.14 C850.31 320.54, 851.99 327, 853.51 333.48 C855.04 339.96, 856.41 346.48, 857.64 353.03 C858.86 359.57, 859.93 366.15, 860.85 372.75 C861.77 379.34, 862.54 385.96, 863.16 392.59 C863.77 399.22, 864.23 405.87, 864.54 412.53 C864.85 419.18, 865 425.84, 865 432.5" stroke="#1e1e1e" stroke-width="4" fill="none"></path></g><g stroke-linecap="round" transform="translate(100.6403622250973 100.64036222509822) rotate(0 341.859637774903 341.8596377749029)"><path d="M683.72 341.86 C683.72 347.82, 683.56 353.8, 683.25 359.75 C682.94 365.71, 682.47 371.66, 681.85 377.59 C681.22 383.52, 680.44 389.45, 679.51 395.34 C678.58 401.23, 677.49 407.1, 676.25 412.94 C675.01 418.77, 673.61 424.58, 672.07 430.34 C670.53 436.1, 668.83 441.83, 666.99 447.5 C665.14 453.17, 663.15 458.8, 661.01 464.37 C658.88 469.94, 656.59 475.46, 654.16 480.91 C651.74 486.35, 649.17 491.75, 646.46 497.06 C643.75 502.37, 640.9 507.62, 637.92 512.79 C634.94 517.95, 631.82 523.05, 628.57 528.05 C625.32 533.05, 621.94 537.97, 618.43 542.8 C614.92 547.62, 611.29 552.36, 607.53 557 C603.78 561.63, 599.9 566.18, 595.91 570.61 C591.92 575.04, 587.81 579.37, 583.59 583.59 C579.37 587.81, 575.04 591.92, 570.61 595.91 C566.18 599.9, 561.63 603.78, 557 607.53 C552.36 611.29, 547.62 614.92, 542.8 618.43 C537.97 621.94, 533.05 625.32, 528.05 628.57 C523.05 631.82, 517.95 634.94, 512.79 637.92 C507.62 640.9, 502.37 643.75, 497.06 646.46 C491.75 649.17, 486.35 651.74, 480.91 654.16 C475.46 656.59, 469.94 658.88, 464.37 661.01 C458.8 663.15, 453.17 665.14, 447.5 666.99 C441.83 668.83, 436.1 670.53, 430.34 672.07 C424.58 673.61, 418.77 675.01, 412.94 676.25 C407.1 677.49, 401.23 678.58, 395.34 679.51 C389.45 680.44, 383.52 681.22, 377.59 681.85 C371.66 682.47, 365.71 682.94, 359.75 683.25 C353.8 683.56, 347.82 683.72, 341.86 683.72 C335.9 683.72, 329.92 683.56, 323.97 683.25 C318.01 682.94, 312.06 682.47, 306.13 681.85 C300.19 681.22, 294.27 680.44, 288.38 679.51 C282.49 678.58, 276.62 677.49, 270.78 676.25 C264.95 675.01, 259.14 673.61, 253.38 672.07 C247.62 670.53, 241.89 668.83, 236.22 666.99 C230.55 665.14, 224.92 663.15, 219.35 661.01 C213.78 658.88, 208.26 656.59, 202.81 654.16 C197.36 651.74, 191.97 649.17, 186.66 646.46 C181.34 643.75, 176.09 640.9, 170.93 637.92 C165.76 634.94, 160.67 631.82, 155.67 628.57 C150.67 625.32, 145.74 621.94, 140.92 618.43 C136.09 614.92, 131.36 611.29, 126.72 607.53 C122.09 603.78, 117.54 599.9, 113.11 595.91 C108.68 591.92, 104.35 587.81, 100.13 583.59 C95.91 579.37, 91.8 575.04, 87.81 570.61 C83.82 566.18, 79.94 561.63, 76.18 557 C72.43 552.36, 68.79 547.62, 65.29 542.8 C61.78 537.97, 58.4 533.05, 55.15 528.05 C51.9 523.05, 48.78 517.95, 45.8 512.79 C42.82 507.62, 39.97 502.37, 37.26 497.06 C34.55 491.75, 31.98 486.35, 29.56 480.91 C27.13 475.46, 24.84 469.94, 22.71 464.37 C20.57 458.8, 18.57 453.17, 16.73 447.5 C14.89 441.83, 13.19 436.1, 11.65 430.34 C10.11 424.58, 8.71 418.77, 7.47 412.94 C6.23 407.1, 5.14 401.23, 4.21 395.34 C3.28 389.45, 2.5 383.52, 1.87 377.59 C1.25 371.66, 0.78 365.71, 0.47 359.75 C0.16 353.8, 0 347.82, 0 341.86 C0 335.9, 0.16 329.92, 0.47 323.97 C0.78 318.01, 1.25 312.06, 1.87 306.13 C2.5 300.19, 3.28 294.27, 4.21 288.38 C5.14 282.49, 6.23 276.62, 7.47 270.78 C8.71 264.95, 10.11 259.14, 11.65 253.38 C13.19 247.62, 14.89 241.89, 16.73 236.22 C18.57 230.55, 20.57 224.92, 22.71 219.35 C24.84 213.78, 27.13 208.26, 29.56 202.81 C31.98 197.36, 34.55 191.97, 37.26 186.66 C39.97 181.34, 42.82 176.09, 45.8 170.93 C48.78 165.76, 51.9 160.67, 55.15 155.67 C58.4 150.67, 61.78 145.74, 65.29 140.92 C68.79 136.09, 72.43 131.36, 76.18 126.72 C79.94 122.09, 83.82 117.54, 87.81 113.11 C91.8 108.68, 95.91 104.35, 100.13 100.13 C104.35 95.91, 108.68 91.8, 113.11 87.81 C117.54 83.82, 122.09 79.94, 126.72 76.18 C131.36 72.43, 136.09 68.79, 140.92 65.29 C145.74 61.78, 150.67 58.4, 155.67 55.15 C160.67 51.9, 165.76 48.78, 170.93 45.8 C176.09 42.82, 181.34 39.97, 186.66 37.26 C191.97 34.55, 197.36 31.98, 202.81 29.56 C208.26 27.13, 213.78 24.84, 219.35 22.71 C224.92 20.57, 230.55 18.57, 236.22 16.73 C241.89 14.89, 247.62 13.19, 253.38 11.65 C259.14 10.11, 264.95 8.71, 270.78 7.47 C276.62 6.23, 282.49 5.14, 288.38 4.21 C294.27 3.28, 300.19 2.5, 306.13 1.87 C312.06 1.25, 318.01 0.78, 323.97 0.47 C329.92 0.16, 335.9 0, 341.86 0 C347.82 0, 353.8 0.16, 359.75 0.47 C365.71 0.78, 371.66 1.25, 377.59 1.87 C383.52 2.5, 389.45 3.28, 395.34 4.21 C401.23 5.14, 407.1 6.23, 412.94 7.47 C418.77 8.71, 424.58 10.11, 430.34 11.65 C436.1 13.19, 441.83 14.89, 447.5 16.73 C453.17 18.57, 458.8 20.57, 464.37 22.71 C469.94 24.84, 475.46 27.13, 480.91 29.56 C486.35 31.98, 491.75 34.55, 497.06 37.26 C502.37 39.97, 507.62 42.82, 512.79 45.8 C517.95 48.78, 523.05 51.9, 528.05 55.15 C533.05 58.4, 537.97 61.78, 542.8 65.29 C547.62 68.79, 552.36 72.43, 557 76.18 C561.63 79.94, 566.18 83.82, 570.61 87.81 C575.04 91.8, 579.37 95.91, 583.59 100.13 C587.81 104.35, 591.92 108.68, 595.91 113.11 C599.9 117.54, 603.78 122.09, 607.53 126.72 C611.29 131.36, 614.92 136.09, 618.43 140.92 C621.94 145.74, 625.32 150.67, 628.57 155.67 C631.82 160.67, 634.94 165.76, 637.92 170.93 C640.9 176.09, 643.75 181.34, 646.46 186.66 C649.17 191.97, 651.74 197.36, 654.16 202.81 C656.59 208.26, 658.88 213.78, 661.01 219.35 C663.15 224.92, 665.14 230.55, 666.99 236.22 C668.83 241.89, 670.53 247.62, 672.07 253.38 C673.61 259.14, 675.01 264.95, 676.25 270.78 C677.49 276.62, 678.58 282.49, 679.51 288.38 C680.44 294.27, 681.22 300.19, 681.85 306.13 C682.47 312.06, 682.94 318.01, 683.25 323.97 C683.56 329.92, 683.72 335.9, 683.72 341.86" stroke="none" stroke-width="0" fill="#a5d8ff"></path><path d="M683.72 341.86 C683.72 347.82, 683.56 353.8, 683.25 359.75 C682.94 365.71, 682.47 371.66, 681.85 377.59 C681.22 383.52, 680.44 389.45, 679.51 395.34 C678.58 401.23, 677.49 407.1, 676.25 412.94 C675.01 418.77, 673.61 424.58, 672.07 430.34 C670.53 436.1, 668.83 441.83, 666.99 447.5 C665.14 453.17, 663.15 458.8, 661.01 464.37 C658.88 469.94, 656.59 475.46, 654.16 480.91 C651.74 486.35, 649.17 491.75, 646.46 497.06 C643.75 502.37, 640.9 507.62, 637.92 512.79 C634.94 517.95, 631.82 523.05, 628.57 528.05 C625.32 533.05, 621.94 537.97, 618.43 542.8 C614.92 547.62, 611.29 552.36, 607.53 557 C603.78 561.63, 599.9 566.18, 595.91 570.61 C591.92 575.04, 587.81 579.37, 583.59 583.59 C579.37 587.81, 575.04 591.92, 570.61 595.91 C566.18 599.9, 561.63 603.78, 557 607.53 C552.36 611.29, 547.62 614.92, 542.8 618.43 C537.97 621.94, 533.05 625.32, 528.05 628.57 C523.05 631.82, 517.95 634.94, 512.79 637.92 C507.62 640.9, 502.37 643.75, 497.06 646.46 C491.75 649.17, 486.35 651.74, 480.91 654.16 C475.46 656.59, 469.94 658.88, 464.37 661.01 C458.8 663.15, 453.17 665.14, 447.5 666.99 C441.83 668.83, 436.1 670.53, 430.34 672.07 C424.58 673.61, 418.77 675.01, 412.94 676.25 C407.1 677.49, 401.23 678.58, 395.34 679.51 C389.45 680.44, 383.52 681.22, 377.59 681.85 C371.66 682.47, 365.71 682.94, 359.75 683.25 C353.8 683.56, 347.82 683.72, 341.86 683.72 C335.9 683.72, 329.92 683.56, 323.97 683.25 C318.01 682.94, 312.06 682.47, 306.13 681.85 C300.19 681.22, 294.27 680.44, 288.38 679.51 C282.49 678.58, 276.62 677.49, 270.78 676.25 C264.95 675.01, 259.14 673.61, 253.38 672.07 C247.62 670.53, 241.89 668.83, 236.22 666.99 C230.55 665.14, 224.92 663.15, 219.35 661.01 C213.78 658.88, 208.26 656.59, 202.81 654.16 C197.36 651.74, 191.97 649.17, 186.66 646.46 C181.34 643.75, 176.09 640.9, 170.93 637.92 C165.76 634.94, 160.67 631.82, 155.67 628.57 C150.67 625.32, 145.74 621.94, 140.92 618.43 C136.09 614.92, 131.36 611.29, 126.72 607.53 C122.09 603.78, 117.54 599.9, 113.11 595.91 C108.68 591.92, 104.35 587.81, 100.13 583.59 C95.91 579.37, 91.8 575.04, 87.81 570.61 C83.82 566.18, 79.94 561.63, 76.18 557 C72.43 552.36, 68.79 547.62, 65.29 542.8 C61.78 537.97, 58.4 533.05, 55.15 528.05 C51.9 523.05, 48.78 517.95, 45.8 512.79 C42.82 507.62, 39.97 502.37, 37.26 497.06 C34.55 491.75, 31.98 486.35, 29.56 480.91 C27.13 475.46, 24.84 469.94, 22.71 464.37 C20.57 458.8, 18.57 453.17, 16.73 447.5 C14.89 441.83, 13.19 436.1, 11.65 430.34 C10.11 424.58, 8.71 418.77, 7.47 412.94 C6.23 407.1, 5.14 401.23, 4.21 395.34 C3.28 389.45, 2.5 383.52, 1.87 377.59 C1.25 371.66, 0.78 365.71, 0.47 359.75 C0.16 353.8, 0 347.82, 0 341.86 C0 335.9, 0.16 329.92, 0.47 323.97 C0.78 318.01, 1.25 312.06, 1.87 306.13 C2.5 300.19, 3.28 294.27, 4.21 288.38 C5.14 282.49, 6.23 276.62, 7.47 270.78 C8.71 264.95, 10.11 259.14, 11.65 253.38 C13.19 247.62, 14.89 241.89, 16.73 236.22 C18.57 230.55, 20.57 224.92, 22.71 219.35 C24.84 213.78, 27.13 208.26, 29.56 202.81 C31.98 197.36, 34.55 191.97, 37.26 186.66 C39.97 181.34, 42.82 176.09, 45.8 170.93 C48.78 165.76, 51.9 160.67, 55.15 155.67 C58.4 150.67, 61.78 145.74, 65.29 140.92 C68.79 136.09, 72.43 131.36, 76.18 126.72 C79.94 122.09, 83.82 117.54, 87.81 113.11 C91.8 108.68, 95.91 104.35, 100.13 100.13 C104.35 95.91, 108.68 91.8, 113.11 87.81 C117.54 83.82, 122.09 79.94, 126.72 76.18 C131.36 72.43, 136.09 68.79, 140.92 65.29 C145.74 61.78, 150.67 58.4, 155.67 55.15 C160.67 51.9, 165.76 48.78, 170.93 45.8 C176.09 42.82, 181.34 39.97, 186.66 37.26 C191.97 34.55, 197.36 31.98, 202.81 29.56 C208.26 27.13, 213.78 24.84, 219.35 22.71 C224.92 20.57, 230.55 18.57, 236.22 16.73 C241.89 14.89, 247.62 13.19, 253.38 11.65 C259.14 10.11, 264.95 8.71, 270.78 7.47 C276.62 6.23, 282.49 5.14, 288.38 4.21 C294.27 3.28, 300.19 2.5, 306.13 1.87 C312.06 1.25, 318.01 0.78, 323.97 0.47 C329.92 0.16, 335.9 0, 341.86 0 C347.82 0, 353.8 0.16, 359.75 0.47 C365.71 0.78, 371.66 1.25, 377.59 1.87 C383.52 2.5, 389.45 3.28, 395.34 4.21 C401.23 5.14, 407.1 6.23, 412.94 7.47 C418.77 8.71, 424.58 10.11, 430.34 11.65 C436.1 13.19, 441.83 14.89, 447.5 16.73 C453.17 18.57, 458.8 20.57, 464.37 22.71 C469.94 24.84, 475.46 27.13, 480.91 29.56 C486.35 31.98, 491.75 34.55, 497.06 37.26 C502.37 39.97, 507.62 42.82, 512.79 45.8 C517.95 48.78, 523.05 51.9, 528.05 55.15 C533.05 58.4, 537.97 61.78, 542.8 65.29 C547.62 68.79, 552.36 72.43, 557 76.18 C561.63 79.94, 566.18 83.82, 570.61 87.81 C575.04 91.8, 579.37 95.91, 583.59 100.13 C587.81 104.35, 591.92 108.68, 595.91 113.11 C599.9 117.54, 603.78 122.09, 607.53 126.72 C611.29 131.36, 614.92 136.09, 618.43 140.92 C621.94 145.74, 625.32 150.67, 628.57 155.67 C631.82 160.67, 634.94 165.76, 637.92 170.93 C640.9 176.09, 643.75 181.34, 646.46 186.66 C649.17 191.97, 651.74 197.36, 654.16 202.81 C656.59 208.26, 658.88 213.78, 661.01 219.35 C663.15 224.92, 665.14 230.55, 666.99 236.22 C668.83 241.89, 670.53 247.62, 672.07 253.38 C673.61 259.14, 675.01 264.95, 676.25 270.78 C677.49 276.62, 678.58 282.49, 679.51 288.38 C680.44 294.27, 681.22 300.19, 681.85 306.13 C682.47 312.06, 682.94 318.01, 683.25 323.97 C683.56 329.92, 683.72 335.9, 683.72 341.86" stroke="#1e1e1e" stroke-width="4" fill="none"></path></g><g stroke-linecap="round" transform="translate(178.97153945666287 178.97153945666287) rotate(0 263.52846054333764 263.5284605433376)"><path d="M527.06 263.53 C527.06 268.83, 526.9 274.15, 526.58 279.44 C526.26 284.73, 525.77 290.03, 525.14 295.29 C524.5 300.56, 523.7 305.81, 522.74 311.03 C521.78 316.25, 520.67 321.45, 519.4 326.59 C518.13 331.74, 516.7 336.87, 515.12 341.93 C513.55 346.99, 511.81 352.02, 509.93 356.98 C508.05 361.94, 506.02 366.85, 503.84 371.68 C501.66 376.52, 499.34 381.3, 496.87 386 C494.41 390.69, 491.8 395.32, 489.05 399.86 C486.31 404.4, 483.42 408.86, 480.41 413.23 C477.4 417.59, 474.24 421.88, 470.97 426.05 C467.7 430.23, 464.3 434.31, 460.78 438.28 C457.27 442.25, 453.62 446.12, 449.87 449.87 C446.12 453.62, 442.25 457.27, 438.28 460.78 C434.31 464.3, 430.23 467.7, 426.05 470.97 C421.88 474.24, 417.59 477.4, 413.23 480.41 C408.86 483.42, 404.4 486.31, 399.86 489.05 C395.32 491.8, 390.69 494.41, 386 496.87 C381.3 499.34, 376.52 501.66, 371.68 503.84 C366.85 506.02, 361.94 508.05, 356.98 509.93 C352.02 511.81, 346.99 513.55, 341.93 515.12 C336.87 516.7, 331.74 518.13, 326.59 519.4 C321.45 520.67, 316.25 521.78, 311.03 522.74 C305.81 523.7, 300.56 524.5, 295.29 525.14 C290.03 525.77, 284.73 526.26, 279.44 526.58 C274.15 526.9, 268.83 527.06, 263.53 527.06 C258.22 527.06, 252.91 526.9, 247.62 526.58 C242.32 526.26, 237.03 525.77, 231.76 525.14 C226.5 524.5, 221.24 523.7, 216.03 522.74 C210.81 521.78, 205.61 520.67, 200.46 519.4 C195.31 518.13, 190.19 516.7, 185.13 515.12 C180.06 513.55, 175.04 511.81, 170.08 509.93 C165.12 508.05, 160.21 506.02, 155.37 503.84 C150.54 501.66, 145.76 499.34, 141.06 496.87 C136.36 494.41, 131.73 491.8, 127.2 489.05 C122.66 486.31, 118.19 483.42, 113.83 480.41 C109.46 477.4, 105.18 474.24, 101.01 470.97 C96.83 467.7, 92.75 464.3, 88.78 460.78 C84.81 457.27, 80.94 453.62, 77.19 449.87 C73.44 446.12, 69.79 442.25, 66.27 438.28 C62.76 434.31, 59.35 430.23, 56.08 426.05 C52.81 421.88, 49.66 417.59, 46.65 413.23 C43.64 408.86, 40.75 404.4, 38.01 399.86 C35.26 395.32, 32.65 390.69, 30.19 386 C27.72 381.3, 25.39 376.52, 23.22 371.68 C21.04 366.85, 19.01 361.94, 17.13 356.98 C15.24 352.02, 13.51 346.99, 11.93 341.93 C10.35 336.87, 8.93 331.74, 7.66 326.59 C6.39 321.45, 5.27 316.25, 4.32 311.03 C3.36 305.81, 2.56 300.56, 1.92 295.29 C1.28 290.03, 0.8 284.73, 0.48 279.44 C0.16 274.15, 0 268.83, 0 263.53 C0 258.22, 0.16 252.91, 0.48 247.62 C0.8 242.32, 1.28 237.03, 1.92 231.76 C2.56 226.5, 3.36 221.24, 4.32 216.03 C5.27 210.81, 6.39 205.61, 7.66 200.46 C8.93 195.31, 10.35 190.19, 11.93 185.13 C13.51 180.06, 15.24 175.04, 17.13 170.08 C19.01 165.12, 21.04 160.21, 23.22 155.37 C25.39 150.54, 27.72 145.76, 30.19 141.06 C32.65 136.36, 35.26 131.73, 38.01 127.2 C40.75 122.66, 43.64 118.19, 46.65 113.83 C49.66 109.46, 52.81 105.18, 56.08 101.01 C59.35 96.83, 62.76 92.75, 66.27 88.78 C69.79 84.81, 73.44 80.94, 77.19 77.19 C80.94 73.44, 84.81 69.79, 88.78 66.27 C92.75 62.76, 96.83 59.35, 101.01 56.08 C105.18 52.81, 109.46 49.66, 113.83 46.65 C118.19 43.64, 122.66 40.75, 127.2 38.01 C131.73 35.26, 136.36 32.65, 141.06 30.19 C145.76 27.72, 150.54 25.39, 155.37 23.22 C160.21 21.04, 165.12 19.01, 170.08 17.13 C175.04 15.24, 180.06 13.51, 185.13 11.93 C190.19 10.35, 195.31 8.93, 200.46 7.66 C205.61 6.39, 210.81 5.27, 216.03 4.32 C221.24 3.36, 226.5 2.56, 231.76 1.92 C237.03 1.28, 242.32 0.8, 247.62 0.48 C252.91 0.16, 258.22 0, 263.53 0 C268.83 0, 274.15 0.16, 279.44 0.48 C284.73 0.8, 290.03 1.28, 295.29 1.92 C300.56 2.56, 305.81 3.36, 311.03 4.32 C316.25 5.27, 321.45 6.39, 326.59 7.66 C331.74 8.93, 336.87 10.35, 341.93 11.93 C346.99 13.51, 352.02 15.24, 356.98 17.13 C361.94 19.01, 366.85 21.04, 371.68 23.22 C376.52 25.39, 381.3 27.72, 386 30.19 C390.69 32.65, 395.32 35.26, 399.86 38.01 C404.4 40.75, 408.86 43.64, 413.23 46.65 C417.59 49.66, 421.88 52.81, 426.05 56.08 C430.23 59.35, 434.31 62.76, 438.28 66.27 C442.25 69.79, 446.12 73.44, 449.87 77.19 C453.62 80.94, 457.27 84.81, 460.78 88.78 C464.3 92.75, 467.7 96.83, 470.97 101.01 C474.24 105.18, 477.4 109.46, 480.41 113.83 C483.42 118.19, 486.31 122.66, 489.05 127.2 C491.8 131.73, 494.41 136.36, 496.87 141.06 C499.34 145.76, 501.66 150.54, 503.84 155.37 C506.02 160.21, 508.05 165.12, 509.93 170.08 C511.81 175.04, 513.55 180.06, 515.12 185.13 C516.7 190.19, 518.13 195.31, 519.4 200.46 C520.67 205.61, 521.78 210.81, 522.74 216.03 C523.7 221.24, 524.5 226.5, 525.14 231.76 C525.77 237.03, 526.26 242.32, 526.58 247.62 C526.9 252.91, 526.98 260.88, 527.06 263.53 C527.14 266.18, 527.14 260.88, 527.06 263.53" stroke="none" stroke-width="0" fill="#d0bfff"></path><path d="M527.06 263.53 C527.06 268.83, 526.9 274.15, 526.58 279.44 C526.26 284.73, 525.77 290.03, 525.14 295.29 C524.5 300.56, 523.7 305.81, 522.74 311.03 C521.78 316.25, 520.67 321.45, 519.4 326.59 C518.13 331.74, 516.7 336.87, 515.12 341.93 C513.55 346.99, 511.81 352.02, 509.93 356.98 C508.05 361.94, 506.02 366.85, 503.84 371.68 C501.66 376.52, 499.34 381.3, 496.87 386 C494.41 390.69, 491.8 395.32, 489.05 399.86 C486.31 404.4, 483.42 408.86, 480.41 413.23 C477.4 417.59, 474.24 421.88, 470.97 426.05 C467.7 430.23, 464.3 434.31, 460.78 438.28 C457.27 442.25, 453.62 446.12, 449.87 449.87 C446.12 453.62, 442.25 457.27, 438.28 460.78 C434.31 464.3, 430.23 467.7, 426.05 470.97 C421.88 474.24, 417.59 477.4, 413.23 480.41 C408.86 483.42, 404.4 486.31, 399.86 489.05 C395.32 491.8, 390.69 494.41, 386 496.87 C381.3 499.34, 376.52 501.66, 371.68 503.84 C366.85 506.02, 361.94 508.05, 356.98 509.93 C352.02 511.81, 346.99 513.55, 341.93 515.12 C336.87 516.7, 331.74 518.13, 326.59 519.4 C321.45 520.67, 316.25 521.78, 311.03 522.74 C305.81 523.7, 300.56 524.5, 295.29 525.14 C290.03 525.77, 284.73 526.26, 279.44 526.58 C274.15 526.9, 268.83 527.06, 263.53 527.06 C258.22 527.06, 252.91 526.9, 247.62 526.58 C242.32 526.26, 237.03 525.77, 231.76 525.14 C226.5 524.5, 221.24 523.7, 216.03 522.74 C210.81 521.78, 205.61 520.67, 200.46 519.4 C195.31 518.13, 190.19 516.7, 185.13 515.12 C180.06 513.55, 175.04 511.81, 170.08 509.93 C165.12 508.05, 160.21 506.02, 155.37 503.84 C150.54 501.66, 145.76 499.34, 141.06 496.87 C136.36 494.41, 131.73 491.8, 127.2 489.05 C122.66 486.31, 118.19 483.42, 113.83 480.41 C109.46 477.4, 105.18 474.24, 101.01 470.97 C96.83 467.7, 92.75 464.3, 88.78 460.78 C84.81 457.27, 80.94 453.62, 77.19 449.87 C73.44 446.12, 69.79 442.25, 66.27 438.28 C62.76 434.31, 59.35 430.23, 56.08 426.05 C52.81 421.88, 49.66 417.59, 46.65 413.23 C43.64 408.86, 40.75 404.4, 38.01 399.86 C35.26 395.32, 32.65 390.69, 30.19 386 C27.72 381.3, 25.39 376.52, 23.22 371.68 C21.04 366.85, 19.01 361.94, 17.13 356.98 C15.24 352.02, 13.51 346.99, 11.93 341.93 C10.35 336.87, 8.93 331.74, 7.66 326.59 C6.39 321.45, 5.27 316.25, 4.32 311.03 C3.36 305.81, 2.56 300.56, 1.92 295.29 C1.28 290.03, 0.8 284.73, 0.48 279.44 C0.16 274.15, 0 268.83, 0 263.53 C0 258.22, 0.16 252.91, 0.48 247.62 C0.8 242.32, 1.28 237.03, 1.92 231.76 C2.56 226.5, 3.36 221.24, 4.32 216.03 C5.27 210.81, 6.39 205.61, 7.66 200.46 C8.93 195.31, 10.35 190.19, 11.93 185.13 C13.51 180.06, 15.24 175.04, 17.13 170.08 C19.01 165.12, 21.04 160.21, 23.22 155.37 C25.39 150.54, 27.72 145.76, 30.19 141.06 C32.65 136.36, 35.26 131.73, 38.01 127.2 C40.75 122.66, 43.64 118.19, 46.65 113.83 C49.66 109.46, 52.81 105.18, 56.08 101.01 C59.35 96.83, 62.76 92.75, 66.27 88.78 C69.79 84.81, 73.44 80.94, 77.19 77.19 C80.94 73.44, 84.81 69.79, 88.78 66.27 C92.75 62.76, 96.83 59.35, 101.01 56.08 C105.18 52.81, 109.46 49.66, 113.83 46.65 C118.19 43.64, 122.66 40.75, 127.2 38.01 C131.73 35.26, 136.36 32.65, 141.06 30.19 C145.76 27.72, 150.54 25.39, 155.37 23.22 C160.21 21.04, 165.12 19.01, 170.08 17.13 C175.04 15.24, 180.06 13.51, 185.13 11.93 C190.19 10.35, 195.31 8.93, 200.46 7.66 C205.61 6.39, 210.81 5.27, 216.03 4.32 C221.24 3.36, 226.5 2.56, 231.76 1.92 C237.03 1.28, 242.32 0.8, 247.62 0.48 C252.91 0.16, 258.22 0, 263.53 0 C268.83 0, 274.15 0.16, 279.44 0.48 C284.73 0.8, 290.03 1.28, 295.29 1.92 C300.56 2.56, 305.81 3.36, 311.03 4.32 C316.25 5.27, 321.45 6.39, 326.59 7.66 C331.74 8.93, 336.87 10.35, 341.93 11.93 C346.99 13.51, 352.02 15.24, 356.98 17.13 C361.94 19.01, 366.85 21.04, 371.68 23.22 C376.52 25.39, 381.3 27.72, 386 30.19 C390.69 32.65, 395.32 35.26, 399.86 38.01 C404.4 40.75, 408.86 43.64, 413.23 46.65 C417.59 49.66, 421.88 52.81, 426.05 56.08 C430.23 59.35, 434.31 62.76, 438.28 66.27 C442.25 69.79, 446.12 73.44, 449.87 77.19 C453.62 80.94, 457.27 84.81, 460.78 88.78 C464.3 92.75, 467.7 96.83, 470.97 101.01 C474.24 105.18, 477.4 109.46, 480.41 113.83 C483.42 118.19, 486.31 122.66, 489.05 127.2 C491.8 131.73, 494.41 136.36, 496.87 141.06 C499.34 145.76, 501.66 150.54, 503.84 155.37 C506.02 160.21, 508.05 165.12, 509.93 170.08 C511.81 175.04, 513.55 180.06, 515.12 185.13 C516.7 190.19, 518.13 195.31, 519.4 200.46 C520.67 205.61, 521.78 210.81, 522.74 216.03 C523.7 221.24, 524.5 226.5, 525.14 231.76 C525.77 237.03, 526.26 242.32, 526.58 247.62 C526.9 252.91, 526.98 260.88, 527.06 263.53 C527.14 266.18, 527.14 260.88, 527.06 263.53" stroke="#1e1e1e" stroke-width="4" fill="none"></path></g><g stroke-linecap="round" transform="translate(264.0168175937906 264.0168175937906) rotate(0 178.48318240620958 178.4831824062096)"><path d="M356.97 178.48 C356.97 182.73, 356.81 186.98, 356.51 191.22 C356.21 195.45, 355.75 199.68, 355.15 203.88 C354.55 208.09, 353.79 212.28, 352.89 216.42 C351.99 220.57, 350.93 224.7, 349.74 228.77 C348.54 232.84, 347.2 236.88, 345.71 240.86 C344.23 244.83, 342.6 248.77, 340.84 252.63 C339.07 256.49, 337.17 260.3, 335.13 264.02 C333.1 267.75, 330.93 271.41, 328.63 274.98 C326.34 278.55, 323.91 282.05, 321.37 285.44 C318.82 288.84, 316.15 292.16, 313.37 295.36 C310.59 298.57, 307.69 301.69, 304.69 304.69 C301.69 307.69, 298.57 310.59, 295.36 313.37 C292.16 316.15, 288.84 318.82, 285.44 321.37 C282.05 323.91, 278.55 326.34, 274.98 328.63 C271.41 330.93, 267.75 333.1, 264.02 335.13 C260.3 337.17, 256.49 339.07, 252.63 340.84 C248.77 342.6, 244.83 344.23, 240.86 345.71 C236.88 347.2, 232.84 348.54, 228.77 349.74 C224.7 350.93, 220.57 351.99, 216.42 352.89 C212.28 353.79, 208.09 354.55, 203.88 355.15 C199.68 355.75, 195.45 356.21, 191.22 356.51 C186.98 356.81, 182.73 356.97, 178.48 356.97 C174.24 356.97, 169.98 356.81, 165.75 356.51 C161.52 356.21, 157.28 355.75, 153.08 355.15 C148.88 354.55, 144.69 353.79, 140.54 352.89 C136.4 351.99, 132.27 350.93, 128.2 349.74 C124.13 348.54, 120.09 347.2, 116.11 345.71 C112.13 344.23, 108.2 342.6, 104.34 340.84 C100.48 339.07, 96.67 337.17, 92.95 335.13 C89.22 333.1, 85.56 330.93, 81.99 328.63 C78.42 326.34, 74.92 323.91, 71.52 321.37 C68.12 318.82, 64.81 316.15, 61.6 313.37 C58.39 310.59, 55.28 307.69, 52.28 304.69 C49.28 301.69, 46.37 298.57, 43.59 295.36 C40.82 292.16, 38.14 288.84, 35.6 285.44 C33.06 282.05, 30.63 278.55, 28.33 274.98 C26.04 271.41, 23.87 267.75, 21.83 264.02 C19.8 260.3, 17.89 256.49, 16.13 252.63 C14.37 248.77, 12.74 244.83, 11.25 240.86 C9.77 236.88, 8.43 232.84, 7.23 228.77 C6.03 224.7, 4.98 220.57, 4.08 216.42 C3.18 212.28, 2.42 208.09, 1.82 203.88 C1.21 199.68, 0.76 195.45, 0.45 191.22 C0.15 186.98, 0 182.73, 0 178.48 C0 174.24, 0.15 169.98, 0.45 165.75 C0.76 161.52, 1.21 157.28, 1.82 153.08 C2.42 148.88, 3.18 144.69, 4.08 140.54 C4.98 136.4, 6.03 132.27, 7.23 128.2 C8.43 124.13, 9.77 120.09, 11.25 116.11 C12.74 112.13, 14.37 108.2, 16.13 104.34 C17.89 100.48, 19.8 96.67, 21.83 92.95 C23.87 89.22, 26.04 85.56, 28.33 81.99 C30.63 78.42, 33.06 74.92, 35.6 71.52 C38.14 68.12, 40.82 64.81, 43.59 61.6 C46.37 58.39, 49.28 55.28, 52.28 52.28 C55.28 49.28, 58.39 46.37, 61.6 43.59 C64.81 40.82, 68.12 38.14, 71.52 35.6 C74.92 33.06, 78.42 30.63, 81.99 28.33 C85.56 26.04, 89.22 23.87, 92.95 21.83 C96.67 19.8, 100.48 17.89, 104.34 16.13 C108.2 14.37, 112.13 12.74, 116.11 11.25 C120.09 9.77, 124.13 8.43, 128.2 7.23 C132.27 6.03, 136.4 4.98, 140.54 4.08 C144.69 3.18, 148.88 2.42, 153.08 1.82 C157.28 1.21, 161.52 0.76, 165.75 0.45 C169.98 0.15, 174.24 0, 178.48 0 C182.73 0, 186.98 0.15, 191.22 0.45 C195.45 0.76, 199.68 1.21, 203.88 1.82 C208.09 2.42, 212.28 3.18, 216.42 4.08 C220.57 4.98, 224.7 6.03, 228.77 7.23 C232.84 8.43, 236.88 9.77, 240.86 11.25 C244.83 12.74, 248.77 14.37, 252.63 16.13 C256.49 17.89, 260.3 19.8, 264.02 21.83 C267.75 23.87, 271.41 26.04, 274.98 28.33 C278.55 30.63, 282.05 33.06, 285.44 35.6 C288.84 38.14, 292.16 40.82, 295.36 43.59 C298.57 46.37, 301.69 49.28, 304.69 52.28 C307.69 55.28, 310.59 58.39, 313.37 61.6 C316.15 64.81, 318.82 68.12, 321.37 71.52 C323.91 74.92, 326.34 78.42, 328.63 81.99 C330.93 85.56, 333.1 89.22, 335.13 92.95 C337.17 96.67, 339.07 100.48, 340.84 104.34 C342.6 108.2, 344.23 112.13, 345.71 116.11 C347.2 120.09, 348.54 124.13, 349.74 128.2 C350.93 132.27, 351.99 136.4, 352.89 140.54 C353.79 144.69, 354.55 148.88, 355.15 153.08 C355.75 157.28, 356.21 161.52, 356.51 165.75 C356.81 169.98, 356.97 174.24, 356.97 178.48" stroke="none" stroke-width="0" fill="#eebefa"></path><path d="M356.97 178.48 C356.97 182.73, 356.81 186.98, 356.51 191.22 C356.21 195.45, 355.75 199.68, 355.15 203.88 C354.55 208.09, 353.79 212.28, 352.89 216.42 C351.99 220.57, 350.93 224.7, 349.74 228.77 C348.54 232.84, 347.2 236.88, 345.71 240.86 C344.23 244.83, 342.6 248.77, 340.84 252.63 C339.07 256.49, 337.17 260.3, 335.13 264.02 C333.1 267.75, 330.93 271.41, 328.63 274.98 C326.34 278.55, 323.91 282.05, 321.37 285.44 C318.82 288.84, 316.15 292.16, 313.37 295.36 C310.59 298.57, 307.69 301.69, 304.69 304.69 C301.69 307.69, 298.57 310.59, 295.36 313.37 C292.16 316.15, 288.84 318.82, 285.44 321.37 C282.05 323.91, 278.55 326.34, 274.98 328.63 C271.41 330.93, 267.75 333.1, 264.02 335.13 C260.3 337.17, 256.49 339.07, 252.63 340.84 C248.77 342.6, 244.83 344.23, 240.86 345.71 C236.88 347.2, 232.84 348.54, 228.77 349.74 C224.7 350.93, 220.57 351.99, 216.42 352.89 C212.28 353.79, 208.09 354.55, 203.88 355.15 C199.68 355.75, 195.45 356.21, 191.22 356.51 C186.98 356.81, 182.73 356.97, 178.48 356.97 C174.24 356.97, 169.98 356.81, 165.75 356.51 C161.52 356.21, 157.28 355.75, 153.08 355.15 C148.88 354.55, 144.69 353.79, 140.54 352.89 C136.4 351.99, 132.27 350.93, 128.2 349.74 C124.13 348.54, 120.09 347.2, 116.11 345.71 C112.13 344.23, 108.2 342.6, 104.34 340.84 C100.48 339.07, 96.67 337.17, 92.95 335.13 C89.22 333.1, 85.56 330.93, 81.99 328.63 C78.42 326.34, 74.92 323.91, 71.52 321.37 C68.12 318.82, 64.81 316.15, 61.6 313.37 C58.39 310.59, 55.28 307.69, 52.28 304.69 C49.28 301.69, 46.37 298.57, 43.59 295.36 C40.82 292.16, 38.14 288.84, 35.6 285.44 C33.06 282.05, 30.63 278.55, 28.33 274.98 C26.04 271.41, 23.87 267.75, 21.83 264.02 C19.8 260.3, 17.89 256.49, 16.13 252.63 C14.37 248.77, 12.74 244.83, 11.25 240.86 C9.77 236.88, 8.43 232.84, 7.23 228.77 C6.03 224.7, 4.98 220.57, 4.08 216.42 C3.18 212.28, 2.42 208.09, 1.82 203.88 C1.21 199.68, 0.76 195.45, 0.45 191.22 C0.15 186.98, 0 182.73, 0 178.48 C0 174.24, 0.15 169.98, 0.45 165.75 C0.76 161.52, 1.21 157.28, 1.82 153.08 C2.42 148.88, 3.18 144.69, 4.08 140.54 C4.98 136.4, 6.03 132.27, 7.23 128.2 C8.43 124.13, 9.77 120.09, 11.25 116.11 C12.74 112.13, 14.37 108.2, 16.13 104.34 C17.89 100.48, 19.8 96.67, 21.83 92.95 C23.87 89.22, 26.04 85.56, 28.33 81.99 C30.63 78.42, 33.06 74.92, 35.6 71.52 C38.14 68.12, 40.82 64.81, 43.59 61.6 C46.37 58.39, 49.28 55.28, 52.28 52.28 C55.28 49.28, 58.39 46.37, 61.6 43.59 C64.81 40.82, 68.12 38.14, 71.52 35.6 C74.92 33.06, 78.42 30.63, 81.99 28.33 C85.56 26.04, 89.22 23.87, 92.95 21.83 C96.67 19.8, 100.48 17.89, 104.34 16.13 C108.2 14.37, 112.13 12.74, 116.11 11.25 C120.09 9.77, 124.13 8.43, 128.2 7.23 C132.27 6.03, 136.4 4.98, 140.54 4.08 C144.69 3.18, 148.88 2.42, 153.08 1.82 C157.28 1.21, 161.52 0.76, 165.75 0.45 C169.98 0.15, 174.24 0, 178.48 0 C182.73 0, 186.98 0.15, 191.22 0.45 C195.45 0.76, 199.68 1.21, 203.88 1.82 C208.09 2.42, 212.28 3.18, 216.42 4.08 C220.57 4.98, 224.7 6.03, 228.77 7.23 C232.84 8.43, 236.88 9.77, 240.86 11.25 C244.83 12.74, 248.77 14.37, 252.63 16.13 C256.49 17.89, 260.3 19.8, 264.02 21.83 C267.75 23.87, 271.41 26.04, 274.98 28.33 C278.55 30.63, 282.05 33.06, 285.44 35.6 C288.84 38.14, 292.16 40.82, 295.36 43.59 C298.57 46.37, 301.69 49.28, 304.69 52.28 C307.69 55.28, 310.59 58.39, 313.37 61.6 C316.15 64.81, 318.82 68.12, 321.37 71.52 C323.91 74.92, 326.34 78.42, 328.63 81.99 C330.93 85.56, 333.1 89.22, 335.13 92.95 C337.17 96.67, 339.07 100.48, 340.84 104.34 C342.6 108.2, 344.23 112.13, 345.71 116.11 C347.2 120.09, 348.54 124.13, 349.74 128.2 C350.93 132.27, 351.99 136.4, 352.89 140.54 C353.79 144.69, 354.55 148.88, 355.15 153.08 C355.75 157.28, 356.21 161.52, 356.51 165.75 C356.81 169.98, 356.97 174.24, 356.97 178.48" stroke="#1e1e1e" stroke-width="4" fill="none"></path></g><g stroke-linecap="round" transform="translate(345.7050452781368 345.7050452781368) rotate(0 96.79495472186301 96.79495472186295)"><path d="M193.59 96.79 C193.59 99.96, 193.43 103.14, 193.12 106.28 C192.81 109.43, 192.35 112.58, 191.73 115.68 C191.11 118.78, 190.34 121.87, 189.42 124.89 C188.5 127.92, 187.43 130.91, 186.22 133.84 C185.01 136.76, 183.65 139.63, 182.16 142.42 C180.67 145.21, 179.03 147.94, 177.28 150.57 C175.52 153.2, 173.62 155.76, 171.62 158.2 C169.61 160.65, 167.48 163, 165.24 165.24 C163 167.48, 160.65 169.61, 158.2 171.62 C155.76 173.62, 153.2 175.52, 150.57 177.28 C147.94 179.03, 145.21 180.67, 142.42 182.16 C139.63 183.65, 136.76 185.01, 133.84 186.22 C130.91 187.43, 127.92 188.5, 124.89 189.42 C121.87 190.34, 118.78 191.11, 115.68 191.73 C112.58 192.35, 109.43 192.81, 106.28 193.12 C103.14 193.43, 99.96 193.59, 96.79 193.59 C93.63 193.59, 90.45 193.43, 87.31 193.12 C84.16 192.81, 81.01 192.35, 77.91 191.73 C74.81 191.11, 71.72 190.34, 68.7 189.42 C65.67 188.5, 62.67 187.43, 59.75 186.22 C56.83 185.01, 53.96 183.65, 51.17 182.16 C48.38 180.67, 45.65 179.03, 43.02 177.28 C40.39 175.52, 37.83 173.62, 35.39 171.62 C32.94 169.61, 30.59 167.48, 28.35 165.24 C26.11 163, 23.98 160.65, 21.97 158.2 C19.97 155.76, 18.07 153.2, 16.31 150.57 C14.56 147.94, 12.92 145.21, 11.43 142.42 C9.94 139.63, 8.58 136.76, 7.37 133.84 C6.16 130.91, 5.09 127.92, 4.17 124.89 C3.25 121.87, 2.48 118.78, 1.86 115.68 C1.24 112.58, 0.78 109.43, 0.47 106.28 C0.16 103.14, 0 99.96, 0 96.79 C0 93.63, 0.16 90.45, 0.47 87.31 C0.78 84.16, 1.24 81.01, 1.86 77.91 C2.48 74.81, 3.25 71.72, 4.17 68.7 C5.09 65.67, 6.16 62.67, 7.37 59.75 C8.58 56.83, 9.94 53.96, 11.43 51.17 C12.92 48.38, 14.56 45.65, 16.31 43.02 C18.07 40.39, 19.97 37.83, 21.97 35.39 C23.98 32.94, 26.11 30.59, 28.35 28.35 C30.59 26.11, 32.94 23.98, 35.39 21.97 C37.83 19.97, 40.39 18.07, 43.02 16.31 C45.65 14.56, 48.38 12.92, 51.17 11.43 C53.96 9.94, 56.83 8.58, 59.75 7.37 C62.67 6.16, 65.67 5.09, 68.7 4.17 C71.72 3.25, 74.81 2.48, 77.91 1.86 C81.01 1.24, 84.16 0.78, 87.31 0.47 C90.45 0.16, 93.63 0, 96.79 0 C99.96 0, 103.14 0.16, 106.28 0.47 C109.43 0.78, 112.58 1.24, 115.68 1.86 C118.78 2.48, 121.87 3.25, 124.89 4.17 C127.92 5.09, 130.91 6.16, 133.84 7.37 C136.76 8.58, 139.63 9.94, 142.42 11.43 C145.21 12.92, 147.94 14.56, 150.57 16.31 C153.2 18.07, 155.76 19.97, 158.2 21.97 C160.65 23.98, 163 26.11, 165.24 28.35 C167.48 30.59, 169.61 32.94, 171.62 35.39 C173.62 37.83, 175.52 40.39, 177.28 43.02 C179.03 45.65, 180.67 48.38, 182.16 51.17 C183.65 53.96, 185.01 56.83, 186.22 59.75 C187.43 62.67, 188.5 65.67, 189.42 68.7 C190.34 71.72, 191.11 74.81, 191.73 77.91 C192.35 81.01, 192.81 84.16, 193.12 87.31 C193.43 90.45, 193.51 95.21, 193.59 96.79 C193.67 98.38, 193.67 95.21, 193.59 96.79" stroke="none" stroke-width="0" fill="#fcc2d7"></path><path d="M193.59 96.79 C193.59 99.96, 193.43 103.14, 193.12 106.28 C192.81 109.43, 192.35 112.58, 191.73 115.68 C191.11 118.78, 190.34 121.87, 189.42 124.89 C188.5 127.92, 187.43 130.91, 186.22 133.84 C185.01 136.76, 183.65 139.63, 182.16 142.42 C180.67 145.21, 179.03 147.94, 177.28 150.57 C175.52 153.2, 173.62 155.76, 171.62 158.2 C169.61 160.65, 167.48 163, 165.24 165.24 C163 167.48, 160.65 169.61, 158.2 171.62 C155.76 173.62, 153.2 175.52, 150.57 177.28 C147.94 179.03, 145.21 180.67, 142.42 182.16 C139.63 183.65, 136.76 185.01, 133.84 186.22 C130.91 187.43, 127.92 188.5, 124.89 189.42 C121.87 190.34, 118.78 191.11, 115.68 191.73 C112.58 192.35, 109.43 192.81, 106.28 193.12 C103.14 193.43, 99.96 193.59, 96.79 193.59 C93.63 193.59, 90.45 193.43, 87.31 193.12 C84.16 192.81, 81.01 192.35, 77.91 191.73 C74.81 191.11, 71.72 190.34, 68.7 189.42 C65.67 188.5, 62.67 187.43, 59.75 186.22 C56.83 185.01, 53.96 183.65, 51.17 182.16 C48.38 180.67, 45.65 179.03, 43.02 177.28 C40.39 175.52, 37.83 173.62, 35.39 171.62 C32.94 169.61, 30.59 167.48, 28.35 165.24 C26.11 163, 23.98 160.65, 21.97 158.2 C19.97 155.76, 18.07 153.2, 16.31 150.57 C14.56 147.94, 12.92 145.21, 11.43 142.42 C9.94 139.63, 8.58 136.76, 7.37 133.84 C6.16 130.91, 5.09 127.92, 4.17 124.89 C3.25 121.87, 2.48 118.78, 1.86 115.68 C1.24 112.58, 0.78 109.43, 0.47 106.28 C0.16 103.14, 0 99.96, 0 96.79 C0 93.63, 0.16 90.45, 0.47 87.31 C0.78 84.16, 1.24 81.01, 1.86 77.91 C2.48 74.81, 3.25 71.72, 4.17 68.7 C5.09 65.67, 6.16 62.67, 7.37 59.75 C8.58 56.83, 9.94 53.96, 11.43 51.17 C12.92 48.38, 14.56 45.65, 16.31 43.02 C18.07 40.39, 19.97 37.83, 21.97 35.39 C23.98 32.94, 26.11 30.59, 28.35 28.35 C30.59 26.11, 32.94 23.98, 35.39 21.97 C37.83 19.97, 40.39 18.07, 43.02 16.31 C45.65 14.56, 48.38 12.92, 51.17 11.43 C53.96 9.94, 56.83 8.58, 59.75 7.37 C62.67 6.16, 65.67 5.09, 68.7 4.17 C71.72 3.25, 74.81 2.48, 77.91 1.86 C81.01 1.24, 84.16 0.78, 87.31 0.47 C90.45 0.16, 93.63 0, 96.79 0 C99.96 0, 103.14 0.16, 106.28 0.47 C109.43 0.78, 112.58 1.24, 115.68 1.86 C118.78 2.48, 121.87 3.25, 124.89 4.17 C127.92 5.09, 130.91 6.16, 133.84 7.37 C136.76 8.58, 139.63 9.94, 142.42 11.43 C145.21 12.92, 147.94 14.56, 150.57 16.31 C153.2 18.07, 155.76 19.97, 158.2 21.97 C160.65 23.98, 163 26.11, 165.24 28.35 C167.48 30.59, 169.61 32.94, 171.62 35.39 C173.62 37.83, 175.52 40.39, 177.28 43.02 C179.03 45.65, 180.67 48.38, 182.16 51.17 C183.65 53.96, 185.01 56.83, 186.22 59.75 C187.43 62.67, 188.5 65.67, 189.42 68.7 C190.34 71.72, 191.11 74.81, 191.73 77.91 C192.35 81.01, 192.81 84.16, 193.12 87.31 C193.43 90.45, 193.51 95.21, 193.59 96.79 C193.67 98.38, 193.67 95.21, 193.59 96.79" stroke="#1e1e1e" stroke-width="4" fill="none"></path></g><g transform="translate(387.49969482421875 32.60969142673821) rotate(0 55.00030517578125 22.53023255813946)"><text x="55.00030517578125" y="0" font-family="Cascadia, Segoe UI Emoji" font-size="37.55038759689922px" fill="#1e1e1e" text-anchor="middle" style="white-space: pre;" direction="ltr" dominant-baseline="text-before-edge">TRACE</text></g><g transform="translate(387.49969482421875 123.2500536518346) rotate(0 55.00030517578125 22.53023255813946)"><text x="55.00030517578125" y="0" font-family="Cascadia, Segoe UI Emoji" font-size="37.55038759689922px" fill="#1e1e1e" text-anchor="middle" style="white-space: pre;" direction="ltr" dominant-baseline="text-before-edge">DEBUG</text></g><g transform="translate(398.499755859375 204.9382813361808) rotate(0 44.000244140625 22.53023255813946)"><text x="44.000244140625" y="0" font-family="Cascadia, Segoe UI Emoji" font-size="37.55038759689922px" fill="#1e1e1e" text-anchor="middle" style="white-space: pre;" direction="ltr" dominant-baseline="text-before-edge">INFO</text></g><g transform="translate(398.499755859375 288.8645426557159) rotate(0 44.000244140625 22.53023255813946)"><text x="44.000244140625" y="0" font-family="Cascadia, Segoe UI Emoji" font-size="37.55038759689922px" fill="#1e1e1e" text-anchor="middle" style="white-space: pre;" direction="ltr" dominant-baseline="text-before-edge">WARN</text></g><g transform="translate(387.49969482421875 418.67049349659646) rotate(0 55.00030517578125 22.53023255813946)"><text x="55.00030517578125" y="0" font-family="Cascadia, Segoe UI Emoji" font-size="37.55038759689921px" fill="#1e1e1e" text-anchor="middle" style="white-space: pre;" direction="ltr" dominant-baseline="text-before-edge">ERROR</text></g></svg>