<svg width="150" height="40" viewBox="0 0 150 40" fill="none" xmlns="http://www.w3.org/2000/svg">
<path fill-rule="evenodd" clip-rule="evenodd" d="M47.3333 2.66667H16C12.1534 2.66667 9.53667 2.67233 7.57715 2.93578C5.69434 3.18892 4.82228 3.63524 4.22876 4.22876C3.63524 4.82229 3.18892 5.69434 2.93578 7.57715C2.67233 9.53667 2.66667 12.1534 2.66667 16V24C2.66667 27.8466 2.67233 30.4633 2.93578 32.4228C3.18892 34.3057 3.63524 35.1777 4.22876 35.7712C4.82228 36.3648 5.69434 36.8111 7.57715 37.0642C9.53667 37.3277 12.1534 37.3333 16 37.3333H47.3333C51.1799 37.3333 53.7966 37.3277 55.7561 37.0642C57.639 36.8111 58.511 36.3648 59.1045 35.7712C59.6981 35.1777 60.1444 34.3057 60.3975 32.4229C60.661 30.4633 60.6666 27.8466 60.6666 24V16C60.6666 12.1534 60.661 9.53667 60.3975 7.57715C60.1444 5.69434 59.6981 4.82229 59.1045 4.22876C58.511 3.63524 57.639 3.18892 55.7561 2.93578C53.7966 2.67233 51.1799 2.66667 47.3333 2.66667ZM2.34314 2.34315C0 4.68629 0 8.45753 0 16V24C0 31.5425 0 35.3137 2.34314 37.6569C4.68629 40 8.45752 40 16 40H47.3333C54.8758 40 58.647 40 60.9902 37.6569C63.3333 35.3137 63.3333 31.5425 63.3333 24V16C63.3333 8.45753 63.3333 4.68629 60.9902 2.34315C58.647 0 54.8758 0 47.3333 0H16C8.45752 0 4.68629 0 2.34314 2.34315Z" fill="#121315"/>
<path fill-rule="evenodd" clip-rule="evenodd" d="M16.2059 10.5392C16.8285 9.91651 17.8381 9.91651 18.4608 10.5392L26.7941 18.8725C27.4168 19.4952 27.4168 20.5048 26.7941 21.1275L18.4608 29.4608C17.8381 30.0835 16.8285 30.0835 16.2059 29.4608C15.5832 28.8381 15.5832 27.8285 16.2059 27.2059L23.4117 20L16.2059 12.7941C15.5832 12.1714 15.5832 11.1619 16.2059 10.5392Z" fill="#121315"/>
<path d="M31.4153 28.3808C31.4153 27.4968 32.1319 26.7802 33.0159 26.7802H46.7116C47.6007 26.7802 48.3215 27.501 48.3215 28.3901C48.3215 29.2792 47.6007 30 46.7116 30H39.8684L33.0116 29.9814C32.1293 29.9791 31.4153 29.2631 31.4153 28.3808Z" fill="#121315"/>
<path d="M75.2186 29.8C74.304 29.8 73.5573 29.52 72.9786 28.96C72.4186 28.3813 72.1386 27.616 72.1386 26.664V18.824H68.6666V15.912H72.1386V11.6H75.6666V15.912H79.4746V18.824H75.6666V26.048C75.6666 26.608 75.928 26.888 76.4506 26.888H79.1386V29.8H75.2186Z" fill="#121315"/>
<path d="M85.8601 30.192C84.8708 30.192 83.9841 30.024 83.2001 29.688C82.4161 29.3333 81.7908 28.8293 81.3242 28.176C80.8762 27.504 80.6522 26.692 80.6522 25.74C80.6522 24.788 80.8762 23.9947 81.3242 23.36C81.7908 22.7067 82.4255 22.2213 83.2281 21.904C84.0495 21.568 84.9828 21.4 86.0281 21.4H89.8361V20.616C89.8361 19.9627 89.6308 19.4307 89.2201 19.02C88.8095 18.5907 88.1561 18.376 87.2601 18.376C86.3828 18.376 85.7295 18.5813 85.3001 18.992C84.8708 19.384 84.5908 19.8973 84.4601 20.532L81.2121 19.44C81.4361 18.7307 81.7908 18.0867 82.2761 17.508C82.7801 16.9107 83.4428 16.4347 84.2641 16.08C85.1041 15.7067 86.1215 15.52 87.3161 15.52C89.1455 15.52 90.5921 15.9773 91.6561 16.892C92.7201 17.8067 93.2521 19.132 93.2521 20.868V26.048C93.2521 26.608 93.5135 26.888 94.0361 26.888H95.1561V29.8H92.8041C92.1135 29.8 91.5441 29.632 91.0961 29.296C90.6481 28.96 90.4241 28.512 90.4241 27.952V27.924H89.8921C89.8175 28.148 89.6495 28.4467 89.3881 28.82C89.1268 29.1747 88.7161 29.492 88.1561 29.772C87.5961 30.052 86.8308 30.192 85.8601 30.192ZM86.4761 27.336C87.4655 27.336 88.2681 27.0653 88.8841 26.524C89.5188 25.964 89.8361 25.2267 89.8361 24.312V24.032H86.2801C85.6268 24.032 85.1135 24.172 84.7401 24.452C84.3668 24.732 84.1801 25.124 84.1801 25.628C84.1801 26.132 84.3761 26.5427 84.7681 26.86C85.1601 27.1773 85.7295 27.336 86.4761 27.336Z" fill="#121315"/>
<path d="M96.6156 29.8V15.912H100.144V29.8H96.6156ZM98.3796 14.288C97.745 14.288 97.2036 14.0827 96.7556 13.672C96.3263 13.2613 96.1116 12.72 96.1116 12.048C96.1116 11.376 96.3263 10.8347 96.7556 10.424C97.2036 10.0133 97.745 9.80801 98.3796 9.80801C99.033 9.80801 99.5743 10.0133 100.004 10.424C100.433 10.8347 100.648 11.376 100.648 12.048C100.648 12.72 100.433 13.2613 100.004 13.672C99.5743 14.0827 99.033 14.288 98.3796 14.288Z" fill="#121315"/>
<path d="M102.933 29.8V10.2H106.461V29.8H102.933Z" fill="#121315"/>
<path d="M115.775 30.192C114.431 30.192 113.208 29.912 112.107 29.352C111.024 28.792 110.165 27.98 109.531 26.916C108.896 25.852 108.579 24.564 108.579 23.052V22.66C108.579 21.148 108.896 19.86 109.531 18.796C110.165 17.732 111.024 16.92 112.107 16.36C113.208 15.8 114.431 15.52 115.775 15.52C117.1 15.52 118.239 15.7533 119.191 16.22C120.143 16.6867 120.908 17.3307 121.487 18.152C122.084 18.9547 122.476 19.8693 122.663 20.896L119.247 21.624C119.172 21.064 119.004 20.56 118.743 20.112C118.481 19.664 118.108 19.3093 117.623 19.048C117.156 18.7867 116.568 18.656 115.859 18.656C115.149 18.656 114.505 18.8147 113.927 19.132C113.367 19.4307 112.919 19.888 112.583 20.504C112.265 21.1013 112.107 21.8387 112.107 22.716V22.996C112.107 23.8733 112.265 24.62 112.583 25.236C112.919 25.8333 113.367 26.2907 113.927 26.608C114.505 26.9067 115.149 27.056 115.859 27.056C116.923 27.056 117.725 26.7853 118.267 26.244C118.827 25.684 119.181 24.956 119.331 24.06L122.747 24.872C122.504 25.8613 122.084 26.7667 121.487 27.588C120.908 28.3907 120.143 29.0253 119.191 29.492C118.239 29.9587 117.1 30.192 115.775 30.192Z" fill="#121315"/>
<path d="M128.849 30.192C127.86 30.192 126.973 30.024 126.189 29.688C125.405 29.3333 124.78 28.8293 124.313 28.176C123.865 27.504 123.641 26.692 123.641 25.74C123.641 24.788 123.865 23.9947 124.313 23.36C124.78 22.7067 125.414 22.2213 126.217 21.904C127.038 21.568 127.972 21.4 129.017 21.4H132.825V20.616C132.825 19.9627 132.62 19.4307 132.209 19.02C131.798 18.5907 131.145 18.376 130.249 18.376C129.372 18.376 128.718 18.5813 128.289 18.992C127.86 19.384 127.58 19.8973 127.449 20.532L124.201 19.44C124.425 18.7307 124.78 18.0867 125.265 17.508C125.769 16.9107 126.432 16.4347 127.253 16.08C128.093 15.7067 129.11 15.52 130.305 15.52C132.134 15.52 133.581 15.9773 134.645 16.892C135.709 17.8067 136.241 19.132 136.241 20.868V26.048C136.241 26.608 136.502 26.888 137.025 26.888H138.145V29.8H135.793C135.102 29.8 134.533 29.632 134.085 29.296C133.637 28.96 133.413 28.512 133.413 27.952V27.924H132.881C132.806 28.148 132.638 28.4467 132.377 28.82C132.116 29.1747 131.705 29.492 131.145 29.772C130.585 30.052 129.82 30.192 128.849 30.192ZM129.465 27.336C130.454 27.336 131.257 27.0653 131.873 26.524C132.508 25.964 132.825 25.2267 132.825 24.312V24.032H129.269C128.616 24.032 128.102 24.172 127.729 24.452C127.356 24.732 127.169 25.124 127.169 25.628C127.169 26.132 127.365 26.5427 127.757 26.86C128.149 27.1773 128.718 27.336 129.465 27.336Z" fill="#121315"/>
<path d="M139.604 29.8V10.2H143.132V29.8H139.604Z" fill="#121315"/>
<path d="M145.922 29.8V10.2H149.45V29.8H145.922Z" fill="#121315"/>
</svg>
