<svg width="151" height="53" viewBox="0 0 151 53" fill="none" xmlns="http://www.w3.org/2000/svg">
<g clip-path="url(#clip0_4963_47)">
<path d="M43.8522 10.5188L42.5918 9.78566L41.1411 8.94391L39.6256 8.06295L38.2384 7.2559L27.3506 0.929257C25.2162 -0.310729 22.5852 -0.310729 20.4508 0.929257L3.95066 10.5188C1.81475 11.7588 0.5 14.0502 0.5 16.5302V35.7047C0.5 38.1862 1.81475 40.4776 3.95066 41.7176L12.3086 46.5734L15.2732 48.2961L20.4508 51.3056C22.5852 52.5456 25.2162 52.5456 27.3506 51.3056L43.8522 41.7176C45.9866 40.4776 47.3013 38.1862 47.3013 35.7047V16.5302C47.3013 14.0487 45.9866 11.7573 43.8522 10.5173V10.5188Z" fill="#FDEA2E"/>
<path fill-rule="evenodd" clip-rule="evenodd" d="M37.9383 34.9825C37.9383 36.8761 36.407 38.4108 34.519 38.4108C33.7782 38.4108 33.0941 38.1754 32.5344 37.7737C32.515 37.7612 32.4971 37.7487 32.4791 37.7349L27.6017 40.5578L27.5464 40.5883L26.9397 40.9305C25.0988 41.9666 23.0519 41.8599 21.4252 40.9775C19.6796 40.0329 18.4192 38.1961 18.4192 35.9258V23.4385H18.4164L13.9647 26.0149C13.9647 26.0149 13.9647 26.0163 13.9633 26.0163C13.9772 26.1355 13.9827 26.2518 13.9827 26.3723C13.9827 26.8433 13.8873 27.2935 13.7146 27.7021C13.1977 28.9349 11.9814 29.8006 10.5634 29.8006C10.4183 29.8006 10.2759 29.7909 10.1364 29.7729C9.55035 29.7009 9.00995 29.4793 8.55525 29.1468C8.16688 28.8656 7.84071 28.5041 7.60161 28.0858C7.38601 27.7146 7.23951 27.299 7.17731 26.8557C7.15382 26.6978 7.14276 26.5358 7.14276 26.3723C7.14276 26.2477 7.14967 26.1244 7.16349 26.0025C7.34731 24.2821 8.79988 22.944 10.5634 22.944C11.3595 22.944 12.092 23.2169 12.6725 23.6754L18.4164 20.3524V18.1361C18.4164 16.6637 19.2028 15.3076 20.4743 14.5762L26.7269 10.99C27.3806 10.616 28.2112 10.8418 28.5844 11.497C28.9575 12.1536 28.7309 12.9874 28.0785 13.3614L21.826 16.9476C21.4017 17.1914 21.1377 17.6444 21.1377 18.1361V35.9258C21.1377 38.2252 23.6047 39.6741 25.6018 38.548L26.4726 38.0576L31.1205 35.3676C31.1094 35.2762 31.1025 35.182 31.1012 35.0878C31.0984 35.0532 31.0984 35.0185 31.0984 34.9825C31.0984 33.089 32.6297 31.5542 34.519 31.5542C34.5646 31.5542 34.6116 31.5556 34.6572 31.557C34.6918 31.5584 34.7264 31.5598 34.7609 31.5626C34.7913 31.5653 34.8203 31.5667 34.8507 31.5709C34.9599 31.5806 35.0663 31.5958 35.1728 31.618C35.2073 31.6249 35.2432 31.6318 35.2778 31.6401C35.3124 31.647 35.3469 31.6554 35.3815 31.6651C35.4146 31.6734 35.4464 31.6817 35.4782 31.6914C35.521 31.7038 35.5639 31.7163 35.6054 31.7302C35.6123 31.7329 35.6192 31.7357 35.6275 31.7385C35.6841 31.7579 35.7408 31.7786 35.7961 31.8022C35.8583 31.8271 35.9205 31.8548 35.9813 31.8825C36.1278 31.9532 36.2701 32.0335 36.4042 32.1235C36.4429 32.1485 36.4816 32.1748 36.5175 32.2025C36.5272 32.2094 36.5383 32.2164 36.5479 32.2233C36.5493 32.2247 36.5493 32.226 36.5507 32.226C37.2929 32.776 37.8056 33.6209 37.9148 34.5891C37.9286 34.7041 37.9369 34.8205 37.9369 34.9396C37.9383 34.9534 37.9383 34.9687 37.9383 34.9825Z" fill="black"/>
<path fill-rule="evenodd" clip-rule="evenodd" d="M37.941 14.3031C37.941 14.7464 37.8567 15.1703 37.7033 15.5581C37.6771 15.6218 37.6508 15.6855 37.6218 15.7493C37.6066 15.7797 37.5914 15.8116 37.5762 15.8421C37.5458 15.9058 37.5126 15.9681 37.4753 16.0291C37.4615 16.054 37.4463 16.0789 37.4311 16.1039C37.3772 16.1925 37.3191 16.277 37.2583 16.3587C37.2265 16.4017 37.1933 16.4432 37.1602 16.4834C37.1325 16.5166 37.1049 16.5499 37.0759 16.5817C37.0731 16.5859 37.0703 16.5887 37.0662 16.5914C37.051 16.6094 37.0344 16.6274 37.0178 16.6441C37.0026 16.6621 36.986 16.6787 36.9681 16.6953C36.9556 16.7106 36.9404 16.7258 36.9252 16.7396C36.8727 16.7937 36.8174 16.8449 36.7607 16.892C36.729 16.9211 36.6972 16.9474 36.664 16.9737C36.5548 17.0624 36.4415 17.1441 36.3226 17.2175C36.2991 17.2328 36.2756 17.2466 36.2521 17.2591C36.172 17.3076 36.0891 17.3519 36.0047 17.3934C35.5556 17.6095 35.0525 17.7314 34.5218 17.7314C33.6856 17.7314 32.9199 17.4308 32.327 16.9322L26.3993 20.3633V34.003C26.3993 34.7579 25.7898 35.3688 25.0379 35.3688C24.2861 35.3688 23.6766 34.7579 23.6766 34.003V20.0433C23.6766 19.3064 24.0456 18.6249 24.6496 18.2218C24.6579 18.2176 24.6648 18.2121 24.6717 18.2079C24.6731 18.2079 24.6744 18.2079 24.6758 18.2052L24.7739 18.1484L31.1039 14.486C31.1039 14.4721 31.1039 14.4583 31.1011 14.4458C31.0984 14.3987 31.0942 14.353 31.0942 14.3045C31.0942 13.774 31.2145 13.2712 31.4287 12.8238C31.9801 11.6699 33.1535 10.8721 34.5149 10.8721C34.6047 10.8721 34.6918 10.8762 34.7802 10.8832H34.7816C34.8493 10.8887 34.917 10.8956 34.9834 10.9067C34.9834 10.9067 34.9848 10.9067 34.9875 10.9067C35.0553 10.9178 35.123 10.9289 35.1893 10.9413C35.1907 10.9413 35.1921 10.9427 35.1948 10.9427C35.2156 10.9469 35.2377 10.9524 35.2584 10.9566C35.2902 10.9635 35.3206 10.9704 35.351 10.9787C35.4077 10.9926 35.463 11.0078 35.5183 11.0244C35.539 11.03 35.5583 11.0369 35.5791 11.0438C35.5998 11.0494 35.6191 11.0563 35.6399 11.0646C35.68 11.0785 35.7214 11.0937 35.7601 11.1089C35.9813 11.1934 36.1899 11.3015 36.3848 11.4303C36.7925 11.6949 37.1394 12.0453 37.4006 12.4553C37.6425 12.8307 37.8111 13.2573 37.8899 13.7144C37.9245 13.9056 37.941 14.1023 37.941 14.3031Z" fill="black"/>
</g>
<path d="M65.9926 37.275C64.9514 37.275 64.1013 36.9562 63.4426 36.3187C62.805 35.6599 62.4863 34.7886 62.4863 33.7048V24.7795H58.5336V21.4644H62.4863V16.5555H66.5027V21.4644H70.8378V24.7795H66.5027V33.0035C66.5027 33.6411 66.8002 33.9598 67.3952 33.9598H70.4553V37.275H65.9926Z" fill="black"/>
<path d="M78.1073 37.7212C76.981 37.7212 75.9716 37.53 75.0791 37.1474C74.1866 36.7437 73.4747 36.1699 72.9434 35.4261C72.4334 34.6611 72.1784 33.7367 72.1784 32.6529C72.1784 31.5691 72.4334 30.666 72.9434 29.9434C73.4747 29.1997 74.1972 28.6471 75.111 28.2859C76.046 27.9034 77.1085 27.7121 78.2986 27.7121H82.6337V26.8196C82.6337 26.0758 82.4 25.4702 81.9325 25.0026C81.4649 24.5139 80.7212 24.2695 79.7011 24.2695C78.7023 24.2695 77.9586 24.5032 77.4698 24.9708C76.981 25.417 76.6623 26.0014 76.5135 26.7239L72.8159 25.4808C73.0709 24.6732 73.4747 23.9401 74.0272 23.2813C74.6009 22.6013 75.3553 22.0594 76.2904 21.6556C77.2467 21.2306 78.4048 21.0181 79.7649 21.0181C81.8475 21.0181 83.4944 21.5388 84.7057 22.58C85.917 23.6213 86.5226 25.1301 86.5226 27.1065V33.0035C86.5226 33.6411 86.8201 33.9598 87.4151 33.9598H88.6902V37.275H86.0126C85.2263 37.275 84.5782 37.0837 84.0682 36.7012C83.5581 36.3187 83.3031 35.8086 83.3031 35.1711V35.1392H82.6975C82.6125 35.3943 82.4212 35.7343 82.1237 36.1593C81.8262 36.5631 81.3587 36.9243 80.7212 37.2431C80.0836 37.5618 79.2124 37.7212 78.1073 37.7212ZM78.8086 34.4699C79.9349 34.4699 80.8487 34.1617 81.5499 33.5454C82.2725 32.9079 82.6337 32.0685 82.6337 31.0272V30.7085H78.5855C77.8417 30.7085 77.2573 30.8678 76.8323 31.1866C76.4073 31.5054 76.1947 31.9516 76.1947 32.5254C76.1947 33.0992 76.4179 33.5667 76.8641 33.928C77.3104 34.2892 77.9586 34.4699 78.8086 34.4699Z" fill="black"/>
<path d="M90.3517 37.275V21.4644H94.3681V37.275H90.3517ZM92.3599 19.6156C91.6374 19.6156 91.0211 19.3818 90.5111 18.9143C90.0223 18.4468 89.778 17.8305 89.778 17.0655C89.778 16.3004 90.0223 15.6842 90.5111 15.2167C91.0211 14.7491 91.6374 14.5154 92.3599 14.5154C93.1037 14.5154 93.72 14.7491 94.2087 15.2167C94.6975 15.6842 94.9419 16.3004 94.9419 17.0655C94.9419 17.8305 94.6975 18.4468 94.2087 18.9143C93.72 19.3818 93.1037 19.6156 92.3599 19.6156Z" fill="black"/>
<path d="M97.5438 37.275V14.9616H101.56V37.275H97.5438Z" fill="black"/>
<path d="M112.163 37.7212C110.633 37.7212 109.241 37.4025 107.987 36.7649C106.755 36.1274 105.777 35.203 105.055 33.9917C104.332 32.7804 103.971 31.3141 103.971 29.5928V29.1465C103.971 27.4252 104.332 25.9589 105.055 24.7476C105.777 23.5363 106.755 22.6119 107.987 21.9744C109.241 21.3369 110.633 21.0181 112.163 21.0181C113.672 21.0181 114.968 21.2837 116.052 21.815C117.136 22.3463 118.007 23.0794 118.666 24.0145C119.346 24.9283 119.792 25.9695 120.005 27.1383L116.116 27.9671C116.031 27.3296 115.839 26.7558 115.542 26.2458C115.244 25.7358 114.819 25.332 114.267 25.0345C113.736 24.737 113.066 24.5882 112.259 24.5882C111.451 24.5882 110.718 24.7689 110.059 25.1301C109.422 25.4702 108.912 25.9908 108.529 26.6921C108.168 27.3721 107.987 28.2115 107.987 29.2103V29.529C107.987 30.5278 108.168 31.3779 108.529 32.0791C108.912 32.7592 109.422 33.2798 110.059 33.6411C110.718 33.9811 111.451 34.1511 112.259 34.1511C113.47 34.1511 114.384 33.843 115 33.2267C115.637 32.5892 116.041 31.7604 116.211 30.7403L120.1 31.6647C119.824 32.791 119.346 33.8217 118.666 34.7567C118.007 35.6705 117.136 36.393 116.052 36.9243C114.968 37.4556 113.672 37.7212 112.163 37.7212Z" fill="black"/>
<path d="M127.047 37.7212C125.921 37.7212 124.911 37.53 124.019 37.1474C123.126 36.7437 122.414 36.1699 121.883 35.4261C121.373 34.6611 121.118 33.7367 121.118 32.6529C121.118 31.5691 121.373 30.666 121.883 29.9434C122.414 29.1997 123.137 28.6471 124.051 28.2859C124.986 27.9034 126.048 27.7121 127.238 27.7121H131.574V26.8196C131.574 26.0758 131.34 25.4702 130.872 25.0026C130.405 24.5139 129.661 24.2695 128.641 24.2695C127.642 24.2695 126.898 24.5032 126.41 24.9708C125.921 25.417 125.602 26.0014 125.453 26.7239L121.756 25.4808C122.011 24.6732 122.414 23.9401 122.967 23.2813C123.541 22.6013 124.295 22.0594 125.23 21.6556C126.186 21.2306 127.345 21.0181 128.705 21.0181C130.787 21.0181 132.434 21.5388 133.646 22.58C134.857 23.6213 135.462 25.1301 135.462 27.1065V33.0035C135.462 33.6411 135.76 33.9598 136.355 33.9598H137.63V37.275H134.952C134.166 37.275 133.518 37.0837 133.008 36.7012C132.498 36.3187 132.243 35.8086 132.243 35.1711V35.1392H131.637C131.552 35.3943 131.361 35.7343 131.064 36.1593C130.766 36.5631 130.299 36.9243 129.661 37.2431C129.023 37.5618 128.152 37.7212 127.047 37.7212ZM127.748 34.4699C128.875 34.4699 129.788 34.1617 130.49 33.5454C131.212 32.9079 131.574 32.0685 131.574 31.0272V30.7085H127.525C126.782 30.7085 126.197 30.8678 125.772 31.1866C125.347 31.5054 125.135 31.9516 125.135 32.5254C125.135 33.0992 125.358 33.5667 125.804 33.928C126.25 34.2892 126.898 34.4699 127.748 34.4699Z" fill="black"/>
<path d="M139.292 37.275V14.9616H143.308V37.275H139.292Z" fill="black"/>
<path d="M146.484 37.275V14.9616H150.5V37.275H146.484Z" fill="black"/>
<defs>
<clipPath id="clip0_4963_47">
<rect width="46.8013" height="52.2363" fill="white" transform="translate(0.5)"/>
</clipPath>
</defs>
</svg>
